<svg xmlns="http://www.w3.org/2000/svg" width="124.638" height="79.841" viewBox="0 0 124.638 79.841">
  <g id="Pag-2" transform="translate(-0.5 -0.274)">
    <g id="A6" transform="translate(1 0.774)">
      <g id="Group-4" transform="translate(0 0)">
        <g id="Group-3" transform="translate(0 0)">
          <path id="Path-2" d="M123.638,42.127V0H0V77.367a16.745,16.745,0,0,1,5.823-1.024,17.981,17.981,0,0,1,5.969,1.024,13.749,13.749,0,0,0,5.887,1.474,13.5,13.5,0,0,0,5.848-1.474,14.6,14.6,0,0,1,5.512-1.024,20.242,20.242,0,0,1,6.176,1.024,16.6,16.6,0,0,0,6.636,1.474,17.175,17.175,0,0,0,6.718-1.474,25.293,25.293,0,0,1,6.845-1.024,21.91,21.91,0,0,1,6.513,1.024,17.584,17.584,0,0,0,7.16,1.474,22.723,22.723,0,0,0,7.836-1.474,27.392,27.392,0,0,1,7.534-1.024,28.78,28.78,0,0,1,7.662,1.024,24.084,24.084,0,0,0,8.194,1.474,26.371,26.371,0,0,0,8.458-1.474,40.956,40.956,0,0,1,8.184-1.024,22.856,22.856,0,0,1,6.683,1.024Z" fill="#1b4461" stroke="#1b4461" stroke-width="1" fill-rule="evenodd"/>
          <text id="_" data-name="#" transform="translate(3.584 60.948)" fill="#facd4e" font-size="62" font-family="Helvetica"><tspan x="0" y="0">#</tspan></text>
          <g id="_21" data-name="21" transform="translate(51.964 5.781)">
            <g id="Group-2" transform="translate(41.213 0)">
              <g id="Group" transform="translate(0 0)">
                <path id="Rectangle" d="M3.208,55.043h7.828c4.074-.283.01-3.622.2-5.185a14.454,14.454,0,0,1,1.039-3.477,102.236,102.236,0,0,0,4.955-18.594c.146-.922-1.831-1.813-1.828-2.874,0-.761,2.007-1.658,1.976-2.488-.03-.807-1.946-1.668-1.976-2.539-.033-.953,1.821-1.921,1.828-2.949.02-3.208-.039-9.5,0-13.454A3.629,3.629,0,0,0,13.62.026c-.6,0-9.349-.058-13.62,0" transform="translate(17.374 55.043) rotate(180)" fill="none" stroke="#3da1e4" stroke-width="1" fill-rule="evenodd"/>
                <path id="Rectangle-Copy" d="M5.347,0h7.828c4.074.283.01,3.622.2,5.185a14.454,14.454,0,0,0,1.039,3.477,102.236,102.236,0,0,1,4.955,18.594c.146.922-1.831,1.813-1.828,2.874,0,.761,2.007,1.658,1.976,2.488-.03.807-1.946,1.668-1.976,2.539-.033.953,1.821,1.921,1.828,2.949.02,3.208-.039,9.5,0,13.454a3.629,3.629,0,0,1-3.606,3.458c-.6,0-9.449.083-13.72.026" transform="translate(1.615 0)" fill="none" stroke="#3da1e4" stroke-width="1" fill-rule="evenodd"/>
              </g>
              <path id="Line" d="M5,2.872a9.272,9.272,0,0,0,2.618.458,10.733,10.733,0,0,0,2.757-.458" transform="translate(3.959 2.274)" fill="none" stroke="#3da1e4" stroke-linecap="square" stroke-width="1" fill-rule="evenodd"/>
            </g>
            <path id="Path_26" data-name="Path 26" d="M19.567,44.869H42.22a14.411,14.411,0,0,0-1.007,4.608q0,1.79,3.655,5.5L2.408,54.8V46.9l20.32-19.191c4.666-4.44,5.494-7.149,5.494-9.708,0-4.139-2.86-6.547-8.429-6.547A12.881,12.881,0,0,0,8.88,16.723L0,11C4.064,5.058,11.439,1.22,20.922,1.22c11.74,0,19.567,6.021,19.567,15.578,0,5.118-1.43,9.784-8.805,16.632Z" transform="translate(0 0.966)" fill="#3da1e4"/>
            <path id="Line-2" d="M0,0Q1.186,1.193,1.872,1.193A4.169,4.169,0,0,0,3.982,0a6.058,6.058,0,0,0,2.8,1.193A6.384,6.384,0,0,0,9.644,0a5.98,5.98,0,0,0,2.788,1.193A6.367,6.367,0,0,0,15.294,0a4.977,4.977,0,0,0,2.479,1.193A2.927,2.927,0,0,0,19.71,0" transform="translate(61.837 24.457) rotate(-179)" fill="none" stroke="#3da1e4" stroke-linecap="round" stroke-width="0.7" fill-rule="evenodd"/>
            <path id="Path-4" transform="translate(0 0)" fill="none" stroke="#979797" stroke-width="1" fill-rule="evenodd"/>
          </g>
        </g>
      </g>
    </g>
  </g>
</svg>
