<?xml version="1.0" encoding="UTF-8"?>
<svg width="19985px" height="19985px" viewBox="0 0 19985 19985" version="1.1" xmlns="http://www.w3.org/2000/svg" xmlns:xlink="http://www.w3.org/1999/xlink">
    <!-- Generator: Sketch 54 (76480) - https://sketchapp.com -->
    <title>bottle</title>
    <desc>Created with Sketch.</desc>
    <g id="Page-1" stroke="none" stroke-width="1" fill="none" fill-rule="evenodd">
        <g id="bottle">
            <circle id="Oval" fill="#F5CC65" cx="9992.5" cy="9992.5" r="9992.5"></circle>
            <path d="M8084.03624,2297 L10219.1586,2297 C11330.2773,2374.08236 10221.9462,3284.87289 10272.7724,3711.21106 C10319.8558,4106.15425 10467.0279,4412.11386 10556.0919,4659.73996 C11326.2559,6801.03835 11710.5066,8486.13686 11907.5751,9731.69699 C11947.3546,9983.12069 11408.2593,10226.1086 11409.0111,10515.5362 C11409.55,10723.0061 11956.3818,10967.8461 11947.9024,11194.2335 C11939.7627,11414.2429 11417.2131,11649.2794 11409.0111,11886.6806 C11400.029,12146.6613 11905.8269,12410.7163 11907.5751,12690.9665 C11913.033,13565.8894 11897.0588,15282.0707 11907.5751,16360.782 C11913.033,16920.6171 11381.5288,17304.0262 10923.9859,17304.0262 C10759.3131,17304.0262 8373.92343,17319.7172 7209,17304.0262" id="Rectangle" stroke="#24455E" stroke-width="488.75" transform="translate(9578.500000, 9804.000000) scale(-1, 1) rotate(-21.000000) translate(-9578.500000, -9804.000000) "></path>
            <path d="M9040.20155,2659 L11175.2326,2659 C12286.3037,2736.07962 11178.02,3646.8378 11228.844,4073.16083 C11275.9254,4468.08999 11423.0912,4774.03873 11512.1515,5021.65604 C12282.2825,7162.87837 12666.5168,8847.91703 12863.5769,10093.4329 C12903.3546,10344.8477 12364.2824,10587.8269 12365.0341,10877.2443 C12365.573,11084.7069 12912.3815,11329.5381 12903.9024,11555.9175 C12895.7631,11775.9191 12373.2358,12010.9472 12365.0341,12248.34 C12356.0524,12508.3115 12861.8287,12772.3571 12863.5769,13052.5973 C12869.0345,13927.4891 12853.061,15643.6095 12863.5769,16722.2825 C12869.0345,17282.0977 12337.553,17665.4932 11880.0297,17665.4932 C11715.364,17665.4932 9302.87359,17688.1572 8138,17672.4667" id="Rectangle-Copy" stroke="#24455E" stroke-width="488.75" transform="translate(10521.000000, 10168.500000) rotate(21.000000) translate(-10521.000000, -10168.500000) "></path>
            <path d="M11764,4389.97689 C12039.7303,4474.67437 12277.7269,4517.02311 12477.9898,4517.02311 C12678.2528,4517.02311 12928.9228,4474.67437 13230,4389.97689" id="Line" stroke="#24455E" stroke-width="488.75" stroke-linecap="square" transform="translate(12497.000000, 4453.500000) rotate(21.000000) translate(-12497.000000, -4453.500000) "></path>
            <path d="" id="Path" stroke="#979797" stroke-width="0.575"></path>
        </g>
    </g>
</svg>