<?xml version="1.0" encoding="UTF-8"?>
<svg width="19985px" height="19985px" viewBox="0 0 19985 19985" version="1.1" xmlns="http://www.w3.org/2000/svg" xmlns:xlink="http://www.w3.org/1999/xlink">
    <!-- Generator: Sketch 54 (76480) - https://sketchapp.com -->
    <title>Group 37</title>
    <desc>Created with Sketch.</desc>
    <g id="Page-1" stroke="none" stroke-width="1" fill="none" fill-rule="evenodd">
        <g id="Group-37">
            <g id="Group-35">
                <circle id="Oval" fill="#F5CC65" cx="9992.5" cy="9992.5" r="9992.5"></circle>
                <path d="M5464.38316,12882.4995 C5166.32886,13987.6097 4984.15331,14808.8004 4917.85696,15346.0612 C4913.81829,15378.7903 4903.2383,15411.2642 4886.28029,15445.0147 C4871.55432,15474.3229 4852.2858,15504.2491 4826.51541,15538.9636 C4816.24291,15552.8013 4805.11143,15567.1926 4791.08504,15584.8853 C4783.71479,15594.1821 4757.94939,15626.3808 4753.96882,15631.3817 C4723.10098,15670.1618 4702.48316,15697.4361 4683.16295,15725.92 C4659.00883,15761.5307 4639.82386,15795.2083 4624.94445,15829.2156 C4589.99257,15909.0989 4579.32739,15990.2128 4596.41169,16079.483 C4652.88771,16374.5857 4994.87444,16710.6452 5622.39364,17087.5777 L9580.44787,18428.0809 C10240.989,18052.3911 10764.7157,17364.4391 11151.6183,16364.204 C11221.0116,16184.8059 11281.0123,15983.3469 11337.527,15746.185 C11384.4749,15549.1697 11427.1023,15337.8825 11482.2837,15037.6175 C11498.8396,14947.53 11556.1472,14630.2455 11561.3837,14601.4668 C11593.9406,14422.5409 11620.4075,14281.339 11647.8961,14141.6464 C11718.4513,13783.0958 11789.6371,13468.2604 11872.802,13158.4996 C11927.4439,12954.977 12098.4496,12658.7119 12385.8223,12269.6711 C10924.8745,12529.2209 9779.72451,12695.7162 8950.36814,12769.1571 C8120.84889,12842.6125 6958.85515,12880.393 5464.38316,12882.4995 Z" id="Rectangle" stroke="#979797" fill="#53A3DE"></path>
                <path d="M7936.55833,1528 L10285.238,1528 C11507.492,1612.78854 10288.3044,2614.63386 10344.2143,3083.59449 C10396.007,3518.02147 10557.8994,3854.5689 10655.8717,4126.95101 C11503.0683,6482.32219 11925.7523,8335.88566 12142.5318,9705.96862 C12186.29,9982.52799 11593.2739,10249.8082 11594.1008,10568.1709 C11594.6936,10796.3823 12196.2202,11065.6997 12186.8926,11314.7198 C12177.9388,11556.7243 11603.1232,11815.2582 11594.1008,12076.3932 C11584.2203,12362.365 12140.6087,12652.8185 12142.5318,12961.0862 C12148.5355,13923.4781 12130.9636,15811.2318 12142.5318,16997.7855 C12148.5355,17613.5893 11563.8697,18035.329 11060.5629,18035.329 C10879.4194,18035.329 8255.44035,18052.5887 6974,18035.329" id="Rectangle" stroke="#24455E" stroke-width="537.625" transform="translate(9580.500000, 9785.500000) scale(-1, 1) rotate(-21.000000) translate(-9580.500000, -9785.500000) "></path>
                <path d="M8987.49742,1926 L11336.2107,1926 C12558.4822,2010.7881 11339.2772,3012.62816 11395.1878,3481.58632 C11446.9814,3916.01103 11608.8761,4252.55669 11706.8498,4524.93737 C12554.0585,6880.2962 12976.7485,8733.84994 13193.5312,10103.9257 C13237.29,10380.4836 12644.2654,10647.7624 12645.0923,10966.1235 C12645.6851,11194.3336 13247.2203,11463.6497 13237.8926,11712.6684 C13228.9387,11954.6717 12654.1148,12213.2042 12645.0923,12474.3378 C12635.2117,12760.3082 13191.6081,13050.7601 13193.5312,13359.0262 C13199.535,14321.413 13181.9628,16209.1569 13193.5312,17395.7043 C13199.535,18011.5049 12614.8608,18433.2424 12111.5468,18433.2424 C11930.4006,18433.2424 9276.45872,18458.1729 7995,18440.9134" id="Rectangle-Copy" stroke="#24455E" stroke-width="537.625" transform="translate(10616.500000, 10186.500000) rotate(21.000000) translate(-10616.500000, -10186.500000) "></path>
                <path d="M11984,3830.4617 C12287.3785,3923.8461 12549.2398,3970.5383 12769.5836,3970.5383 C12989.9275,3970.5383 13265.733,3923.8461 13597,3830.4617" id="Line" stroke="#24455E" stroke-width="537.625" stroke-linecap="square" transform="translate(12790.500000, 3900.500000) rotate(21.000000) translate(-12790.500000, -3900.500000) "></path>
                <path d="" id="Path" stroke="#979797" stroke-width="0.6325"></path>
            </g>
        </g>
    </g>
</svg>