<?xml version="1.0" encoding="UTF-8"?>
<svg width="19985px" height="19985px" viewBox="0 0 19985 19985" version="1.1" xmlns="http://www.w3.org/2000/svg" xmlns:xlink="http://www.w3.org/1999/xlink">
    <!-- Generator: Sketch 54 (76480) - https://sketchapp.com -->
    <title>Group 34</title>
    <desc>Created with Sketch.</desc>
    <g id="Page-1" stroke="none" stroke-width="1" fill="none" fill-rule="evenodd">
        <g id="Group-34">
            <circle id="Oval" fill="#F5CC65" cx="9992.5" cy="9992.5" r="9992.5"></circle>
            <g id="Group-29" transform="translate(3235.000000, 5678.474275)" stroke="#24455E" stroke-linecap="round" stroke-width="510">
                <path d="M8030.47663,345 L11058.317,345 C12634.0066,387.50439 11062.2701,889.728187 11134.3473,1124.81756 C11201.1168,1342.59527 11409.8231,1511.30607 11536.1258,1647.85088 C12628.3038,2828.59549 13173.2139,3757.78453 13452.679,4444.60539 C13509.0907,4583.24426 13521.8923,5126.2369 13509.8675,5251.07033 C13498.3246,5372.38691 13450.1998,5921.85754 13452.679,6076.39176 C13460.4188,6558.83759 13437.7656,7505.16617 13452.679,8099.98404 C13460.4188,8408.68569 12706.6869,8620.10331 12057.8404,8620.10331 C11824.3161,8620.10331 8402.99066,8632.60101 6751,8623.94876" id="Rectangle-Copy"></path>
                <path d="M4946,172 C6123.64339,275.155598 7632.12033,407.29054 8896,518" id="Rectangle-Copy" transform="translate(6921.000000, 345.000000) rotate(-5.000000) translate(-6921.000000, -345.000000) "></path>
                <path d="M3154,1092 C5312.51599,1249.1185 8077.42056,1450.37605 10394,1619" id="Rectangle-Copy" transform="translate(6774.000000, 1355.500000) rotate(-4.000000) translate(-6774.000000, -1355.500000) "></path>
                <path d="M1279.47663,345 L4307.31703,345 C5883.00657,387.50439 4311.27009,889.728187 4383.34728,1124.81756 C4450.1168,1342.59527 4658.82314,1511.30607 4785.12583,1647.85088 C5877.30376,2828.59549 6422.21395,3757.78453 6701.67899,4444.60539 C6758.09067,4583.24426 6770.89226,5126.2369 6758.8675,5251.07033 C6747.32457,5372.38691 6699.19982,5921.85754 6701.67899,6076.39176 C6709.41881,6558.83759 6686.76562,7505.16617 6701.67899,8099.98404 C6709.41881,8408.68569 5955.68689,8620.10331 5306.84035,8620.10331 C5073.31605,8620.10331 1651.99066,8632.60101 0,8623.94876" id="Rectangle-Copy" transform="translate(3381.500000, 4486.000000) scale(-1, 1) translate(-3381.500000, -4486.000000) "></path>
            </g>
            <text id="£" font-family="HiraginoSans-W6, Hiragino Sans" font-size="5000" font-weight="500" fill="#53A3DE">
                <tspan x="8180" y="12487">£</tspan>
            </text>
        </g>
    </g>
</svg>