<?xml version="1.0" encoding="UTF-8"?>
<svg width="19985px" height="19985px" viewBox="0 0 19985 19985" version="1.1" xmlns="http://www.w3.org/2000/svg" xmlns:xlink="http://www.w3.org/1999/xlink">
    <!-- Generator: Sketch 54 (76480) - https://sketchapp.com -->
    <title>Group 36</title>
    <desc>Created with Sketch.</desc>
    <g id="Page-1" stroke="none" stroke-width="1" fill="none" fill-rule="evenodd">
        <g id="Group-36">
            <g id="plastic-bag">
                <circle id="Oval" fill="#F5CC65" cx="9992.5" cy="9992.5" r="9992.5"></circle>
                <g id="Group-16" transform="translate(5020.000000, 2776.000000)" stroke="#24455E" stroke-linecap="round" stroke-width="510">
                    <path d="M5910.85687,2314.80154 L8138.92914,2314.80154 C9298.41897,2376.99865 8141.83804,3111.9079 8194.8769,3455.9166 C8244.01004,3774.59296 8397.58907,4021.46921 8490.53041,4221.27663 C9294.22249,5949.07238 9695.20111,7308.76426 9900.84878,8313.79631 C9942.35998,8516.66799 9951.78018,9311.2347 9942.93162,9493.90475 C9934.43761,9671.42855 9899.02445,10475.4746 9900.84878,10701.6061 C9906.54421,11407.574 9889.8746,12792.3464 9900.84878,13662.7495 C9906.54421,14114.4758 9351.90165,14423.8454 8874.44022,14423.8454 C8702.5986,14423.8454 6184.97574,14442.1334 4969.33883,14429.4725" id="Rectangle-Copy"></path>
                    <path d="M3714.58672,2215.72805 C3873.18133,1356.92759 3986.96675,832.918345 4055.94298,643.700328 C4317.74249,-74.4773107 5855.03761,-211.531046 6036.15341,1024.55258 C6066.3581,1230.69427 6077.66784,2237.85206 6068.33838,2421.65464" id="Rectangle-Copy" transform="translate(4893.054199, 1260.028636) rotate(-5.000000) translate(-4893.054199, -1260.028636) "></path>
                    <path d="M4130.34686,2470.87829 C4244.20356,1854.49899 4325.89129,1478.40645 4375.41003,1342.60067 C4563.3586,827.14936 5666.99859,728.782989 5797.02348,1615.9464 C5818.70774,1763.89866 5826.82712,2486.75716 5820.1294,2618.67617" id="Rectangle-Copy" transform="translate(4976.380795, 1784.952563) scale(-1, 1) rotate(-5.000000) translate(-4976.380795, -1784.952563) "></path>
                    <path d="M941.518046,2314.80154 L3169.59031,2314.80154 C4329.08014,2376.99865 3172.49921,3111.9079 3225.53807,3455.9166 C3274.67121,3774.59296 3428.25024,4021.46921 3521.19158,4221.27663 C4324.88366,5949.07238 4725.86228,7308.76426 4931.50995,8313.79631 C4973.02115,8516.66799 4982.44135,9311.2347 4973.59279,9493.90475 C4965.09879,9671.42855 4929.68562,10475.4746 4931.50995,10701.6061 C4937.20539,11407.574 4920.53577,12792.3464 4931.50995,13662.7495 C4937.20539,14114.4758 4382.56282,14423.8454 3905.1014,14423.8454 C3733.25977,14423.8454 1215.63692,14442.1334 0,14429.4725" id="Rectangle-Copy" transform="translate(2488.316870, 8374.369461) scale(-1, 1) translate(-2488.316870, -8374.369461) "></path>
                </g>
            </g>
            <text id="£" font-family="HiraginoSans-W6, Hiragino Sans" font-size="5000" font-weight="500" fill="#53A3DE">
                <tspan x="8180" y="13031">£</tspan>
            </text>
        </g>
    </g>
</svg>