<svg xmlns="http://www.w3.org/2000/svg" width="40" height="66" viewBox="0 0 40 66">
  <g id="Group_281" data-name="Group 281" transform="translate(-935 -956)">
    <path id="Union_2" data-name="Union 2" d="M0,49.347q0-.623.054-1.234H0V16.655C0,7.458,8.955,0,20,0S40,7.458,40,16.655V48.112h-.054q.054.612.054,1.234C40,58.544,31.045,66,20,66S0,58.544,0,49.347Z" transform="translate(935 956)" fill="#fff" opacity="0.199"/>
    <g id="down-chevron" transform="translate(941.113 991.468)" opacity="0.504">
      <g id="Group_280" data-name="Group 280" transform="translate(0 0)">
        <path id="Path_23" data-name="Path 23" d="M14.276,56.9a1.65,1.65,0,0,1-1.17-.483L.484,43.8a1.654,1.654,0,0,1,2.339-2.339L14.276,52.909,25.729,41.457A1.654,1.654,0,1,1,28.068,43.8L15.445,56.418A1.648,1.648,0,0,1,14.276,56.9Z" transform="translate(0 -40.972)" fill="#fff"/>
      </g>
    </g>
    <g id="down-chevron-2" data-name="down-chevron" transform="translate(941.113 977.074)">
      <g id="Group_280-2" data-name="Group 280" transform="translate(0 0)">
        <path id="Path_23-2" data-name="Path 23" d="M14.276,56.9a1.65,1.65,0,0,1-1.17-.483L.484,43.8a1.654,1.654,0,0,1,2.339-2.339L14.276,52.909,25.729,41.457A1.654,1.654,0,1,1,28.068,43.8L15.445,56.418A1.648,1.648,0,0,1,14.276,56.9Z" transform="translate(0 -40.972)" fill="#fff"/>
      </g>
    </g>
  </g>
</svg>
