<?xml version="1.0" encoding="UTF-8"?>
<svg width="19985px" height="19985px" viewBox="0 0 19985 19985" version="1.1" xmlns="http://www.w3.org/2000/svg" xmlns:xlink="http://www.w3.org/1999/xlink">
    <!-- Generator: Sketch 54 (76480) - https://sketchapp.com -->
    <title>Group 33@3x</title>
    <desc>Created with Sketch.</desc>
    <g id="Page-1" stroke="none" stroke-width="1" fill="none" fill-rule="evenodd">
        <g id="Group-33">
            <circle id="Oval" fill="#F5CC65" cx="9992.5" cy="9992.5" r="9992.5"></circle>
            <g id="Group-32" transform="translate(6068.000000, 3002.000000)" stroke="#24455E" stroke-width="469.2">
                <path d="M522.269387,5747.6 L1981.47408,13746.4 L6113.09418,13746.4 L7284.53966,5747.6 L522.269387,5747.6 Z" id="Rectangle"></path>
                <path d="M3899.47585,5710.71583 C5359.80092,5710.71583 6747.48156,5875.29554 7283.36298,5512.89128 C7530.57175,5345.70968 7849,4891.9602 7849,4544.54776 C7849,3204.40781 6091.9415,1693 3924.5,1693 C1757.0585,1693 1.58430508e-13,3204.40781 0,4544.54776 C0,4871.13745 303.069792,5269.72384 487.13296,5446.12238 C921.576517,5862.47516 2408.52002,5710.71583 3899.47585,5710.71583 Z" id="Oval"></path>
                <path d="M5690.5998,1882.39994 L6296.4002,0.600063735" id="Line-2" stroke-linecap="square"></path>
            </g>
        </g>
    </g>
</svg>