<?xml version="1.0" encoding="UTF-8"?>
<svg width="19985px" height="19985px" viewBox="0 0 19985 19985" version="1.1" xmlns="http://www.w3.org/2000/svg" xmlns:xlink="http://www.w3.org/1999/xlink">
    <!-- Generator: Sketch 54 (76480) - https://sketchapp.com -->
    <title>Group 30</title>
    <desc>Created with Sketch.</desc>
    <g id="Page-1" stroke="none" stroke-width="1" fill="none" fill-rule="evenodd">
        <g id="Group-30">
            <g id="Group-18">
                <circle id="Oval" fill="#F5CC65" cx="9992.5" cy="9992.5" r="9992.5"></circle>
                <path d="M10239.2964,11768.9629 C10648.4572,11768.9629 11182.1909,11806.5625 11458.2637,11497.8066 C11463.9963,11491.3953 11469.9282,11483.6214 11474.433,11475.989 C11477.3853,11470.9871 11493.0971,11446.2946 11496.9661,11435.222 C11499.0008,11429.399 11538.4539,11277.1234 11553.8223,11190.4276 C11567.8709,11111.1768 11608.5653,10838.1644 11611.9448,10750.3802 C11618.1642,10588.8293 11609.6251,10601.0275 11595.7988,10427.2429 C11592.2272,10382.3512 11582.661,10328.1975 11580.0705,10283.7375 C11573.9046,10177.9111 11530.5272,10004.2703 11473.0365,9817.01915 C11415.5458,9629.76798 11328.852,9446.5561 11303.8829,9395.29675 C11257.6969,9300.48119 11233.8371,9263.76895 11206.6272,9212.85153 C11176.0313,9155.59812 11142.9693,9104.53982 11135.434,9091.43151 C11097.3796,9025.23204 11023.4543,8919.7125 10988.4614,8867.1884 C10944.0579,8800.53906 10888.5516,8739.1123 10851.3557,8697.08563 C10797.1976,8635.89397 10753.6624,8594.75606 10743.5779,8584.56919 C10689.1613,8529.60011 10677.5439,8521.83209 10646.9738,8494.23729 C10566.774,8421.84307 10479.0839,8360.82263 10417.5812,8322.3956 C10356.0786,8283.96858 10298.8024,8260.48892 10263.9106,8246.97416 C10229.0187,8233.4594 10175.0041,8219.82777 10134.7547,8222.60288 C10018.4901,8230.61906 9897.44988,8296.68747 9819.90015,8346.26015 C9671.56462,8441.08175 9497.45962,8573.28774 9278.87898,8804.42579 C9228.37668,8857.82944 9154.02649,8946.84932 9055.82842,9071.48544 C8976.2429,9184.94735 8891.20783,9356.08891 8800.72322,9584.91011 C8753.57261,9704.14649 8707.20786,9918.07161 8661.62896,10226.6855 C8643.45616,10416.8813 8633.33634,10554.3391 8631.26952,10639.0587 C8629.01053,10731.655 8639.13035,10869.2852 8661.62896,11051.9494 C8712.36036,11242.8514 8758.72511,11359.0312 8800.72322,11400.4886 C9133.29486,11728.779 9813.32007,11768.9629 10239.2964,11768.9629 Z" id="Oval"></path>
                <path d="M7362.77264,11172.1051 C7726.25175,11172.1051 8200.39559,11206.3967 8445.64557,10924.8049 C8450.73817,10918.9577 8456.0078,10911.8678 8460.00966,10904.9069 C8462.6323,10900.345 8476.58992,10877.825 8480.02699,10867.7265 C8481.8345,10862.4158 8516.88277,10723.5373 8530.53532,10644.4689 C8543.01545,10572.1906 8579.16643,10323.1976 8582.16864,10243.1366 C8587.69368,10095.7989 8580.10795,10106.9238 8567.82527,9948.42866 C8564.65242,9907.48647 8556.15428,9858.09721 8553.85306,9817.54877 C8548.37555,9721.03293 8509.84108,9562.6689 8458.76906,9391.89196 C8407.69704,9221.11502 8330.68236,9054.02199 8308.50098,9007.2724 C8267.47158,8920.79865 8246.2756,8887.31633 8222.10359,8840.87858 C8194.9237,8788.66228 8165.55294,8742.09606 8158.85898,8730.14101 C8125.05323,8669.76572 8059.38149,8573.52972 8028.29546,8525.62665 C7988.8495,8464.84107 7939.54033,8408.81859 7906.4972,8370.4894 C7858.38574,8314.68134 7819.71108,8277.16271 7810.7525,8267.87208 C7762.41137,8217.73913 7752.09104,8210.65454 7724.93401,8185.48751 C7653.68827,8119.46249 7575.78853,8063.81058 7521.15247,8028.76433 C7466.51642,7993.71809 7415.63497,7972.30416 7384.63871,7959.97842 C7353.64245,7947.65267 7305.65839,7935.22035 7269.90273,7937.7513 C7166.61873,7945.06222 7059.09234,8005.31798 6990.20082,8050.52929 C6858.42654,8137.00855 6703.75989,8257.58316 6509.58317,8468.38585 C6464.71931,8517.09108 6398.67012,8598.27906 6311.43559,8711.94978 C6240.73557,8815.42939 6165.19444,8971.51404 6084.81218,9180.20372 C6042.92581,9288.94977 6001.73755,9484.0539 5961.24741,9765.51612 C5945.10355,9938.97871 5936.11358,10064.343 5934.27752,10141.6091 C5932.27074,10226.0588 5941.26071,10351.5804 5961.24741,10518.1739 C6006.31479,10692.2805 6047.50305,10798.2389 6084.81218,10836.0489 C6380.25312,11135.4566 6984.35539,11172.1051 7362.77264,11172.1051 Z" id="Oval" transform="translate(7259.002857, 9555.420476) rotate(40.000000) translate(-7259.002857, -9555.420476) "></path>
                <path d="M13281.809,11295.8381 C13645.2881,11295.8381 14119.432,11330.1297 14364.682,11048.5379 C14369.7746,11042.6907 14375.0442,11035.6008 14379.046,11028.6399 C14381.6687,11024.078 14395.6263,11001.558 14399.0634,10991.4595 C14400.8709,10986.1488 14435.9192,10847.2703 14449.5717,10768.2019 C14462.0518,10695.9236 14498.2028,10446.9306 14501.205,10366.8696 C14506.7301,10219.5319 14499.1443,10230.6568 14486.8616,10072.1617 C14483.6888,10031.2195 14475.1907,9981.83022 14472.8894,9941.28179 C14467.4119,9844.76594 14428.8775,9686.40192 14377.8054,9515.62498 C14326.7334,9344.84804 14249.7187,9177.755 14227.5374,9131.00542 C14186.508,9044.53166 14165.312,9011.04934 14141.14,8964.6116 C14113.9601,8912.3953 14084.5893,8865.82908 14077.8954,8853.87403 C14044.0896,8793.49874 13978.4179,8697.26273 13947.3318,8649.35966 C13907.8859,8588.57409 13858.5767,8532.55161 13825.5336,8494.22242 C13777.4221,8438.41436 13738.7475,8400.89573 13729.7889,8391.60509 C13681.4478,8341.47215 13671.1274,8334.38756 13643.9704,8309.22053 C13572.7247,8243.1955 13494.8249,8187.54359 13440.1889,8152.49735 C13385.5528,8117.45111 13334.6714,8096.03718 13303.6751,8083.71143 C13272.6788,8071.38569 13224.6948,8058.95336 13188.9391,8061.48432 C13085.6551,8068.79524 12978.1287,8129.051 12909.2372,8174.26231 C12777.4629,8260.74157 12622.7963,8381.31618 12428.6196,8592.11886 C12383.7557,8640.8241 12317.7065,8722.01207 12230.472,8835.68279 C12159.772,8939.16241 12084.2308,9095.24706 12003.8486,9303.93673 C11961.9622,9412.68278 11920.7739,9607.78692 11880.2838,9889.24914 C11864.1399,10062.7117 11855.15,10188.0761 11853.3139,10265.3421 C11851.3071,10349.7918 11860.2971,10475.3134 11880.2838,10641.907 C11925.3512,10816.0135 11966.5394,10921.9719 12003.8486,10959.7819 C12299.2895,11259.1896 12903.3918,11295.8381 13281.809,11295.8381 Z" id="Oval" transform="translate(13178.039240, 9679.153492) scale(-1, 1) rotate(40.000000) translate(-13178.039240, -9679.153492) "></path>
                <g id="Group-15" transform="translate(1540.000000, 1414.000000)" stroke="#24455E" stroke-linecap="round" stroke-width="488.75">
                    <path d="M3815.58971,1760.60283 C3785.31276,1729.25013 4062.83236,1855.66308 4648.14851,2139.84169 C5526.12274,2566.10961 5858.59775,3720.80958 5947.66733,3968.43384 C6022.16896,4175.55741 6008.99558,4217.39805 6523.13047,4311.8867 C7037.26536,4406.37536 8214.55602,5112.87512 8596.08163,5405.20873 C9464.54438,6070.64468 9787.85973,6184.10945 10770.8489,7423.09464 C11426.175,8249.08477 11987.5149,9197.69469 12454.8686,10268.9244 C13466.6604,12179.5677 13967.6694,13272.4405 13957.8956,13547.5425 C13943.2351,13960.1957 13288.2381,12706.8833 12378.7162,12412.3934 C11295.1314,12061.5445 12645.0244,14894.9653 12646.1469,15074.5668 C12651.615,15949.4796 11553.7384,14891.9385 11034.6272,14354.3832 C10515.516,13816.8278 10692.0264,12679.8925 10390.7195,12262.25 C10054.7232,11796.5244 9704.30059,11887.6852 8756.68645,11390.9179 C7809.07232,10894.1506 7413.65234,10690.9433 7031.61992,10209.1477 C5663.66622,8483.96946 5489.01677,6463.73575 5475.37431,6761.10461 C5468.13688,6918.86124 5231.9106,7330.42577 5108.94572,7613.57178 C4754.19389,8430.44373 4604.94679,9079.60762 4435.02118,9273.59673 C4265.09557,9467.58583 3657.16909,9163.19751 3563.34491,8370.94953 C3469.52073,7578.70154 3485.33171,7334.3047 3633.64172,6690.4383 C3781.95173,6046.5719 3793.51852,5933.84143 4219.46192,5522.51268 C4645.40531,5111.18392 5169.46195,5272.12461 5276.12413,5057.44402 C5347.23225,4914.32363 5175.20803,4706.66223 4760.05148,4434.45982 C4510.81474,4358.22765 4279.25006,4216.97489 4065.35744,4010.70155 C3744.5185,3701.29153 3677.52347,3552.09329 3515.18184,3233.9349 C3352.8402,2915.7765 3334.79591,2754.24334 3300.23848,2511.21547 C3265.68105,2268.18761 3260.83915,2296.31921 3433.5612,2129.52347 C3548.70923,2018.32631 3676.05206,1895.35276 3815.58971,1760.60283 Z" id="Rectangle-Copy" transform="translate(8619.535508, 8582.440444) rotate(-46.000000) translate(-8619.535508, -8582.440444) "></path>
                    <path d="M4140.65061,7064.70713 C4673.80641,6462.84046 5340.06313,6667.70135 7001.97956,7474.71291 C7334.5271,7636.19499 7477.61963,7967.25263 7383.59536,8198.0335 C7289.57109,8428.81437 5965.30715,9662.82964 5391.12066,9700.44418 C4673.29886,9747.46817 3607.49482,7666.57379 4140.65061,7064.70713 Z" id="Rectangle-Copy" transform="translate(5704.247794, 8208.855852) rotate(-46.000000) translate(-5704.247794, -8208.855852) "></path>
                    <path d="M10077.1157,7240.11495 C10610.2715,6638.24829 12366.2209,7393.11999 12627.9894,7551.58816 C12889.7579,7710.05633 13447.3484,7993.27405 13199.2281,8361.43944 C12951.1078,8729.60483 11901.7722,9838.23747 11327.5857,9875.85201 C10609.7639,9922.876 9543.95987,7841.98162 10077.1157,7240.11495 Z" id="Rectangle-Copy" transform="translate(11597.194841, 8443.695825) scale(-1, 1) rotate(-46.000000) translate(-11597.194841, -8443.695825) "></path>
                    <path d="M6586.42921,8158.77127 C7119.5834,7556.90179 7885.48474,7040.05123 9187.37256,7067.85651 C9489.47319,7074.30868 10168.1423,7191.43789 10388.0382,7517.44704 C10607.9342,7843.45619 10494.7133,8731.65721 10249.2369,9260.52737 C10003.7606,9789.39754 9077.10999,10740.1222 8359.29098,10787.1469 C7641.47196,10834.1717 6053.27501,8760.64076 6586.42921,8158.77127 Z" id="Rectangle-Copy" transform="translate(8492.258322, 8927.359067) scale(-1, 1) rotate(-56.000000) translate(-8492.258322, -8927.359067) "></path>
                </g>
            </g>
        </g>
    </g>
</svg>