<?xml version="1.0" encoding="UTF-8"?>
<svg width="19985px" height="19985px" viewBox="0 0 19985 19985" version="1.1" xmlns="http://www.w3.org/2000/svg" xmlns:xlink="http://www.w3.org/1999/xlink">
    <!-- Generator: Sketch 54 (76480) - https://sketchapp.com -->
    <title>Group 31</title>
    <desc>Created with Sketch.</desc>
    <g id="Page-1" stroke="none" stroke-width="1" fill="none" fill-rule="evenodd">
        <g id="Group-31">
            <circle id="Oval" fill="#F5CC65" cx="9992.5" cy="9992.5" r="9992.5"></circle>
            <path d="M4471.22823,5335.84228 C6433.13076,3867.25683 7588.24661,3420.51272 9140.58603,3184.0346 C10692.9254,2947.55648 11531.7602,2990.59388 13303.8097,3651.24879 C15075.8593,4311.90369 17386.4726,5926.76836 17152.3539,6275.69336 C16996.2748,6508.31002 14445.0842,6982.16261 9498.78216,7697.25112 C10330.2543,13273.1048 10782.3259,16300.8654 10854.997,16780.5329 C10964.0038,17500.0341 10411.1201,13748.5458 10108.1536,11719.4205 C9906.17596,10366.6704 9703.05214,9025.94722 9498.78216,7697.25112 C5142.86273,8132.08887 2802.30453,8290.33604 2477.10757,8171.99261 C1989.31213,7994.47748 2509.3257,6804.42772 4471.22823,5335.84228 Z" id="Rectangle-Copy" stroke="#24455E" stroke-width="425" stroke-linecap="round" transform="translate(9737.285075, 9961.926896) rotate(21.000000) translate(-9737.285075, -9961.926896) "></path>
            <path d="M4475.12399,6863.28842 C3660.59397,6876.25642 4315.82837,5863.75691 5118.21004,5040.18078 C5659.57388,4484.51713 6270.44041,4024.06969 6510.99981,3854.23335 C6590.29621,3798.24963 7290.34611,3317.59937 7720.18877,3045.38567 C8073.55165,2821.60561 8510.1487,2608.665 8834.76917,2476.59598 C9670.87441,2136.43381 10336.6743,1988.11059 10217.5538,2165.64513 C10061.4747,2398.2618 9100.95932,3924.86985 7336.00777,6745.4693 C6338.14544,6809.53706 5384.51752,6848.8101 4475.12399,6863.28842 Z" id="Rectangle-Copy" stroke="#24455E" stroke-width="425" stroke-linecap="round" transform="translate(7166.339203, 4476.773515) rotate(21.000000) translate(-7166.339203, -4476.773515) "></path>
            <path d="M12590.166,8894.49961 C11775.636,8907.46762 12430.8704,7894.9681 13233.252,7071.39198 C13774.6159,6515.72832 14385.4824,6055.28089 14626.0418,5885.44455 C14705.3382,5829.46083 15405.3881,5348.81056 15835.2308,5076.59686 C16188.5936,4852.8168 16625.1907,4639.87619 16949.8112,4507.80717 C17785.9164,4167.645 18451.7163,4019.32178 18332.5957,4196.85633 C18176.5166,4429.47299 17216.0013,5956.08105 15451.0498,8776.68049 C14453.1874,8840.74825 13499.5595,8880.02129 12590.166,8894.49961 Z" id="Rectangle-Copy" stroke="#24455E" stroke-width="425" stroke-linecap="round" transform="translate(15281.381185, 6507.984709) scale(-1, 1) rotate(-8.000000) translate(-15281.381185, -6507.984709) "></path>
            <path d="M7354.00225,8096.11361 C6810.98224,8104.75895 7030.42006,7357.16571 8012.31571,5853.3339 C8909.02591,4272.81427 9673.91009,3463.94311 10306.9682,3426.72044 C11256.5555,3370.88643 14847.2864,6873.98262 14711.9107,7190.71487 C14658.2726,7316.20944 14236.7249,7379.9394 13412.6477,7504.72284 C13037.6479,7561.50608 12289.8976,7666.98495 11169.397,7821.15945 C10285.4368,7884.29614 9656.06416,7930.5178 9281.27897,7959.82444 C8467.50385,8023.45826 7891.84175,8087.55075 7354.00225,8096.11361 Z" id="Rectangle-Copy" stroke="#24455E" stroke-width="425" stroke-linecap="round" transform="translate(10889.794018, 5761.123960) scale(-1, 1) rotate(-8.000000) translate(-10889.794018, -5761.123960) "></path>
        </g>
    </g>
</svg>